<svg width="81" height="80" viewBox="0 0 81 80" fill="none" xmlns="http://www.w3.org/2000/svg">
<path d="M20.6688 13.6226C19.958 14.1101 19.3932 14.0505 18.9755 13.4417C18.7173 13.0654 18.1101 12.0338 17.1532 10.3459C16.201 8.66568 15.5265 7.52901 15.13 6.93592C15.0597 6.83337 15.0754 6.74699 15.1779 6.67677C15.424 6.50753 15.8195 6.2115 16.3636 5.78714C16.9077 5.36379 17.2755 5.08593 17.4674 4.95509C19.1083 3.82852 20.4647 4.04475 21.5342 5.60426C22.1354 6.47924 22.4066 7.34411 22.3496 8.19889C22.2869 9.17743 21.7903 9.98575 20.8598 10.6243C20.5658 10.8259 20.295 10.9668 20.0475 11.0456L21.1998 13.032C21.2634 13.1396 21.2432 13.2285 21.1412 13.2982L20.6688 13.6226ZM67.0353 13.3038C66.3867 12.791 64.0441 12.1474 63.9103 13.2199C63.9769 13.5135 64.1841 13.7751 64.5023 13.7969C65.1823 13.8449 65.8183 14.0894 66.3361 14.4849C66.8428 14.8724 67.2359 15.4064 67.4455 16.0429C67.535 16.3167 67.7022 16.4592 67.8906 16.5047C68.0144 16.5345 68.1356 16.5183 68.2453 16.4658C68.3306 16.4254 68.4049 16.3637 68.465 16.2885C68.606 16.1096 68.6853 15.8105 68.5923 15.5291C68.3013 14.64 67.7486 13.8676 67.0353 13.3038ZM12.6197 13.3801C13.2683 12.8673 15.6109 12.2242 15.7448 13.2962C15.6781 13.5897 15.4715 13.8514 15.1522 13.8732C14.4727 13.9212 13.8367 14.1656 13.3188 14.5612C12.8121 14.9487 12.4186 15.4832 12.2095 16.1192C12.1195 16.393 11.9529 16.536 11.7644 16.5809C11.6406 16.6107 11.5194 16.5941 11.4098 16.542C11.3244 16.5016 11.2501 16.44 11.19 16.3647C11.0486 16.1864 10.9697 15.8868 11.0627 15.6054C11.3537 14.7163 11.9058 13.9444 12.6197 13.3801ZM30.9286 35.9109C30.3083 35.0213 30.763 33.5643 30.8857 32.5938C31.0575 31.2319 31.2085 29.8664 31.3384 28.4993C31.4748 27.0565 31.5879 25.6112 31.6774 24.1648C31.696 23.8602 31.7142 23.5555 31.7309 23.2504C31.7445 23.0024 31.8233 22.6538 31.6834 22.4209C31.4894 22.0976 31.008 22.0971 30.6801 22.0895C29.4505 22.0622 28.2365 22.5068 27.0675 22.8321C26.6396 22.9508 26.0925 23.0211 25.7454 23.3282C25.3529 23.6768 25.3569 24.3275 25.2796 24.8074C24.8234 27.6284 24.3764 30.4513 24.051 33.291C23.7323 36.0746 23.656 38.8622 23.4458 41.6523C23.3438 43.0067 23.1488 44.3364 22.8553 45.6625C22.584 46.8911 22.2854 48.145 22.3961 49.412C22.4784 50.3582 22.7734 51.3019 23.8353 51.455C24.8058 51.5954 28.48 50.8331 29.6091 50.5956C30.0264 50.5077 30.4932 50.4183 30.7569 50.0485C31.305 49.2817 30.6286 47.8606 30.3866 47.0775C29.9951 45.81 29.6374 44.5046 30.1153 43.2063C30.8736 41.1446 32.9742 38.1979 35.3233 37.917C36.0336 37.8321 36.9495 37.8301 37.6401 38.017C41.1703 38.9749 38.1109 54.719 37.9791 58.2745C37.9654 58.6362 37.8285 59.2561 37.9755 59.5991C38.1857 60.0896 39.1677 60.028 39.5921 60.0502C40.56 60.1013 41.5411 60.0113 42.4828 59.7805C43.1456 59.6173 43.816 59.3374 44.164 58.7069C44.1822 58.6872 44.1928 58.6645 44.1933 58.6377C44.3085 53.9966 45.0193 49.3645 45.5695 44.7603C45.7084 43.5973 45.8473 42.4329 45.9863 41.2694C46.0838 40.4576 46.1903 38.5187 46.6025 37.9392C47.2179 37.0749 48.5394 37.1491 49.4801 37.1713C50.1287 37.1865 50.8997 37.184 51.2508 37.8377C51.4802 38.2666 51.4342 38.8056 51.3998 39.2729L51.3983 39.2921C51.1291 46.5425 50.1086 53.7187 49.2346 60.9141C49.2144 61.0798 49.4468 61.1864 49.5776 61.1824C51.7019 61.1136 54.9806 60.8004 56.0885 58.5771C56.4512 57.8481 56.4936 56.9236 56.6002 56.127C57.0923 52.4239 57.1988 48.6825 57.4474 44.9588C57.5843 42.9108 57.7601 40.8647 58.0703 38.8354C58.1162 38.5798 58.1248 38.3181 58.1713 38.0635C58.2602 37.5725 58.4315 37.3734 58.8988 37.2178C59.3424 37.0713 59.7587 36.8975 60.1567 36.6495C60.9585 36.1509 61.6283 35.4401 62.082 34.6111C62.2871 34.2377 62.4442 33.8422 62.5543 33.4314C62.6458 33.0925 62.8448 32.4953 62.6119 32.17C62.1714 31.5532 60.7169 32.1124 60.1754 32.2751C59.0756 32.605 58.0066 32.9904 56.8791 33.2223C55.7227 33.4597 54.5456 33.5881 53.3675 33.6568C51.0305 33.7932 48.6875 33.6739 46.351 33.5971C43.5603 33.5057 40.7687 33.4734 37.9775 33.4961C40.2256 30.7833 41.3223 27.1798 40.5085 23.699C40.1483 22.1587 39.4416 20.4598 38.1589 19.4661C36.8676 18.4668 35.1429 18.0121 33.5541 17.7712C30.1426 17.2538 26.6376 17.9162 23.5777 19.4853C20.592 21.0165 17.7539 23.255 16.9148 26.6478C16.4768 28.419 16.5162 30.468 17.2568 32.1584C18.0211 33.9033 19.8332 34.1811 21.5428 34.2574C21.7767 34.2817 22.0864 34.211 22.0121 34.1301C21.1503 33.1965 20.9639 31.931 20.9527 30.7034C20.9411 29.4299 21.1007 28.1437 21.465 26.9211C21.8368 25.6738 22.436 24.48 23.3044 23.5025C24.2334 22.4573 25.4448 21.7798 26.6937 21.1872C29.2686 19.9657 32.5968 19.0271 34.7049 21.5889C36.3877 23.6334 36.3463 26.4078 35.7001 28.8418C34.9868 31.5264 33.7208 34.8354 30.9286 35.9109ZM76.0575 30.5236C75.2042 28.6554 73.6891 28.9338 72.3393 28.2386C72.217 28.175 71.8179 28.0785 71.7689 28.2886C71.2703 30.4347 74.5434 33.5673 76.2924 34.5469C76.3616 34.655 76.6677 35.0248 76.798 34.9455C77.4164 34.5691 77.8307 33.8977 78.1696 33.2779C78.548 32.5883 78.8805 31.8431 79.0851 31.0813C79.5862 29.2091 79.0658 28.0345 77.8711 26.6276C77.769 26.5068 77.3694 26.4452 77.2694 26.5998C76.2575 28.1553 76.1499 28.469 76.0575 30.5236ZM71.7154 61.2657C72.0928 60.172 70.9247 60.4645 70.3423 60.4569C69.6133 60.4478 68.954 60.2952 68.3064 60.5908C68.7318 59.6511 68.4109 59.3844 67.9194 58.6362C67.7855 58.4311 67.637 58.2366 67.4951 58.0365C67.3455 57.8234 67.248 57.5324 67.0788 57.3394C66.2094 56.3462 65.8335 58.2558 65.7224 58.7676C65.4263 60.125 65.6703 61.1238 66.3468 61.8058C67.684 63.1531 70.3342 62.9879 71.7154 61.2657ZM68.998 58.8514C71.8094 60.7312 74.8375 59.342 76.1732 56.9423C76.209 56.8787 75.961 56.8206 75.9438 56.8175C74.6743 56.5857 73.1951 56.3664 71.9175 56.6549C71.1496 56.8276 70.5035 57.2874 69.9387 57.8309C70.2913 56.8969 70.4165 55.8132 70.361 54.8094C70.265 53.993 69.6396 51.4888 68.5494 53.1903C68.1382 53.8339 68.0169 54.0764 67.8219 54.82C67.3809 56.5058 68.751 58.7519 68.998 58.8514ZM71.6871 54.8175C73.5345 55.8638 76.0908 55.5071 77.6155 53.0377C77.7877 52.6685 77.763 52.2961 77.3119 52.1991C76.9254 52.1163 76.4242 52.3613 76.0458 52.4381C75.0718 52.6356 74.7384 51.9864 73.8119 52.3613C73.6705 52.4184 73.5391 52.4881 73.4164 52.5689L73.4265 52.5128C73.6538 51.1903 72.6207 49.5838 71.2713 48.9927C71.1496 48.9391 70.7768 48.8472 70.703 49.0159C69.9574 50.727 70.1973 53.9744 71.6871 54.8175ZM79.466 46.7957C79.5786 46.3885 79.7473 45.758 79.1906 45.6953C79.0108 45.6751 78.8325 45.7161 78.6572 45.7529C77.0921 46.0879 75.9898 45.9262 75.2386 47.6484C75.0193 45.6741 74.1554 45.5352 73.2405 44.4864C73.1339 44.3642 72.601 44.2369 72.6182 44.5314C72.6828 45.6383 71.9316 46.3698 72.211 47.3973C72.5575 48.6714 73.3487 49.7671 73.9231 50.9397C74.6945 52.4456 79.4018 49.7571 79.466 46.7957ZM75.6149 45.2265C74.7465 44.439 73.8675 43.5953 73.3113 42.5485C72.7621 41.5149 72.9001 40.9365 73.0395 39.7862C73.0562 39.6452 73.3936 39.6831 73.4674 39.7033C74.8349 40.0847 76.056 40.1863 76.3879 41.7084C76.4076 41.7978 76.4237 41.8868 76.4353 41.9762C76.694 41.469 77.0754 41.0042 77.4917 40.6308C78.1045 40.0812 78.6718 40.2989 79.2215 39.6761C79.3078 39.577 79.8479 39.6139 79.862 39.771C80.2707 44.1783 76.3434 45.8898 75.6149 45.2265ZM76.3101 39.8185C76.0964 39.8266 75.8544 39.8973 75.2269 39.1987C73.9129 37.7351 71.7644 37.1486 72.1999 33.4865C72.1888 32.6302 77.032 35.6932 76.3712 37.0486C76.4293 36.9071 78.591 34.2094 78.8022 33.9195C78.9123 33.7674 79.3437 33.8442 79.4336 33.9866C80.8755 36.2731 79.4144 38.6541 76.8829 39.6215C76.6657 39.7134 76.4096 39.8134 76.3101 39.8185ZM73.9721 24.5417C73.7058 23.4333 73.1794 21.6358 74.7369 20.7927C76.6319 21.1625 76.7289 26.0886 75.6998 27.7607C75.6725 27.9562 75.2315 27.8537 75.13 27.8001C73.719 27.055 68.9702 25.0696 69.9432 23.0387C72.8935 22.8114 73.8271 23.8718 73.9721 24.5417ZM71.4224 15.6463C72.2843 16.0914 72.602 18.3435 72.7197 19.1382C72.7637 19.4363 73.0238 22.0289 72.9101 22.1395C72.4782 22.5613 71.1486 21.3459 70.6994 21.0018C70.2291 20.6421 69.6264 20.5012 69.098 20.2446C68.121 19.7702 67.5622 19.1483 67.2101 18.1081C66.8762 17.1215 68.0321 17.3084 68.6252 17.4832C69.7654 17.8187 70.9642 18.9432 71.4047 19.2246C71.2461 18.9538 69.8114 14.8143 71.4224 15.6463ZM63.6723 64.0993C64.1699 63.681 64.5488 63.1208 64.7362 62.4868C64.8327 62.1609 65.1419 62.019 65.448 62.0184C65.5268 62.0184 65.6077 62.028 65.683 62.0467C65.7643 62.0664 65.8436 62.0978 65.9128 62.1397C66.1447 62.2781 66.271 62.4994 66.1846 62.7919C65.9143 63.7042 65.3814 64.4782 64.6827 65.048C63.9754 65.6245 63.0974 65.9942 62.1482 66.0882C61.8451 66.1175 61.5834 65.9746 61.446 65.7917C61.3879 65.7134 61.3479 65.6255 61.3303 65.534C61.3101 65.4219 61.3212 65.3082 61.3707 65.2001C61.4555 65.0152 61.6369 64.8712 61.936 64.8419C62.5846 64.7773 63.1863 64.507 63.6723 64.0993ZM6.93584 30.7969C7.98511 29.5107 8.41399 29.2869 8.04621 27.5753C8.00378 27.3748 7.62441 27.3919 7.48498 27.4607C5.70824 28.3402 5.16767 27.5389 4.15578 29.6072C4.14618 29.3318 4.129 29.0575 4.10526 28.7862C4.00321 27.6092 3.8451 27.4541 3.20604 26.4381C3.09238 26.2588 2.92869 26.0224 2.80391 26.1643C0.617969 28.6559 0.954931 30.8328 3.41216 33.2738C4.23208 33.7891 6.64687 31.1505 6.93584 30.7969ZM13.0319 61.0182C12.3095 61.6648 10.8697 61.8745 9.91338 61.8997C9.37385 61.9144 8.84393 61.7825 8.35643 61.5511C7.828 61.3006 7.10358 60.856 6.85098 60.3023C6.30942 59.1192 8.92423 59.0893 9.48801 59.1166C10.1533 59.149 10.8076 59.301 11.3901 59.5865C11.3193 59.4304 11.2673 59.2758 11.24 59.1323C11.1496 58.515 11.9463 57.2692 12.6045 56.3341C12.7829 56.081 12.9551 55.7405 13.234 55.9375C14.7541 57.6647 13.572 60.5792 13.0319 61.0182ZM9.0182 19.0538C9.32384 18.7396 9.56986 18.5648 9.9154 18.3067C10.6712 17.7419 10.8652 17.7626 11.8281 17.6878C12.1175 17.6651 12.6353 17.655 12.7475 18.0041C12.8561 18.342 12.5045 18.8937 12.3398 19.1655C11.6689 20.2708 11.3537 20.1546 10.213 20.6305C9.44409 20.9513 8.86057 21.5813 8.28011 22.1617C8.08107 22.3613 7.63803 22.6265 7.42484 22.2911C7.24095 22.0016 7.37991 21.2433 7.39406 20.9271C7.42942 20.1178 7.5178 19.3079 7.68148 18.5138C8.67922 13.9994 10.3059 15.1977 9.0182 19.0538ZM6.54328 23.5202C6.85094 24.1588 8.77573 22.3941 9.90735 23.1115C10.5232 25.7753 6.17706 26.616 5.04292 27.1924C4.92622 27.251 4.50388 27.2762 4.48114 27.0878C4.16186 24.428 3.42375 22.6573 5.13936 20.1814C6.38263 19.409 6.81305 22.8478 6.54328 23.5202ZM7.36525 32.8429C7.36979 32.6954 7.02324 32.7004 6.94999 32.708C5.30713 33.391 4.10528 34.7773 3.63747 36.5171C3.49602 36.1579 3.3409 35.8058 3.18581 35.4638C2.66143 34.3079 2.02439 33.3718 1.29339 32.3321C1.19184 32.1882 0.757415 32.1745 0.658398 32.3266C-0.0715962 33.4506 0.0930776 35.1541 0.564417 36.3545C1.05899 37.6139 2.4927 38.645 3.7395 39.0577C4.20882 39.2168 7.28543 35.4128 7.36525 32.8429ZM0.0355015 38.2125C0.053183 38.0494 0.605332 38.0999 0.682626 38.1908C1.22267 38.8228 1.89811 38.9274 2.5013 39.4866C2.90242 39.8584 3.27678 40.3227 3.52331 40.8228C3.54049 40.7071 3.56323 40.592 3.59253 40.4768C3.96839 39.0143 5.39197 38.7546 6.73223 38.4015C6.83479 38.3737 7.20964 38.352 7.22681 38.5197C7.34452 39.6735 7.21165 40.4439 6.64432 41.4705C6.06942 42.5091 5.1778 43.3321 4.29574 44.1091C4.24219 44.1566 4.10932 44.1702 3.98252 44.1591C1.62986 44.2753 -0.286808 41.183 0.0355015 38.2125ZM0.343149 43.9828C1.10042 44.1555 4.35129 46.0768 4.66299 46.8123C5.23132 43.5357 5.59256 44.6097 7.18996 42.8264C7.31575 42.6854 7.82342 42.6637 7.8022 42.9426C7.75471 43.5867 7.60218 44.0045 7.74616 44.6148C7.877 45.175 7.86184 45.7161 7.72139 46.2718C7.38645 47.6009 6.52917 48.7305 5.91436 49.9344C5.61428 50.535 4.1169 49.845 2.50889 48.7578C0.56342 47.4418 -0.351482 44.3374 0.343149 43.9828ZM3.85923 54.228C2.96657 53.5929 1.93901 52.3714 1.72077 51.2726C1.51516 50.2375 2.9009 50.5542 3.34294 50.6447C4.27602 50.8351 5.45918 51.0594 6.29375 51.558C6.34023 51.5858 6.38517 51.6146 6.42912 51.6454C6.41902 51.5924 6.40991 51.5388 6.40233 51.4858C6.24825 49.9505 8.28214 47.7782 8.5701 47.9258C9.37537 49.8621 9.93816 53.2125 8.11898 54.4841C7.44759 54.8807 5.0151 55.0509 3.85923 54.228ZM10.3953 51.2095C10.9344 50.9129 11.241 51.6055 11.4547 51.9632C12.6833 54.0239 12.6343 56.9484 10.2574 58.082C9.22736 58.5736 8.09524 58.5387 7.00707 58.4185C5.51324 58.2528 4.25276 57.054 3.56924 55.7804C3.52731 55.7016 3.66929 55.6738 3.72183 55.6652C4.99591 55.4525 6.45491 55.2757 7.73101 55.5632C8.55043 55.747 9.22684 56.2477 9.81437 56.8357C9.50368 56.0123 9.37135 55.1171 9.38145 54.2431C9.39509 53.1645 10.1296 52.2466 10.3953 51.2095ZM14.259 64.5954C13.5699 64.0154 13.0476 63.24 12.798 62.3443C12.7116 62.0396 12.8399 61.8148 13.0673 61.6739C13.137 61.6294 13.2203 61.5971 13.3077 61.5764C13.385 61.5577 13.4669 61.5496 13.5472 61.5511C13.8478 61.5572 14.1459 61.7072 14.2317 62.0149C14.4156 62.6711 14.7834 63.245 15.275 63.6724C15.7569 64.0907 16.3591 64.3681 17.0244 64.4448C17.3109 64.4777 17.4841 64.6126 17.5665 64.7879C17.6205 64.903 17.6291 65.0253 17.5998 65.143C17.5776 65.2349 17.5321 65.3203 17.4705 65.3941C17.324 65.5684 17.0467 65.7063 16.7526 65.6719C15.8231 65.5659 14.9552 65.1804 14.259 64.5954ZM22.1763 73.2634C21.4226 72.8436 21.218 72.3258 21.561 71.7099C21.6868 71.4851 22.7719 69.8114 24.8179 66.6879L22.884 65.6088L19.1265 71.3492C19.0588 71.4538 18.9704 71.4755 18.8618 71.4149L18.2641 71.0815C17.5109 70.6617 17.3058 70.1439 17.6493 69.528C17.8191 69.2239 18.5213 68.1428 19.7565 66.2868C20.9917 64.4302 21.6736 63.386 21.803 63.1541C21.8636 63.045 21.9515 63.0233 22.0677 63.0879L22.6653 63.4213L26.577 65.6032C27.0049 65.8417 27.2489 66.1013 27.3105 66.3827C27.3696 66.6343 27.2903 66.9556 27.0721 67.3466C26.3936 68.5636 25.0488 70.6253 23.0387 73.5316C22.9705 73.6357 22.882 73.6579 22.7739 73.5968L22.1763 73.2634ZM29.3818 70.0292C29.3191 70.2621 29.1302 70.8036 28.814 71.6549C28.4876 72.5122 28.3037 73.0163 28.2633 73.1684C28.1026 73.761 28.2865 74.1288 28.815 74.2717C29.3676 74.4213 29.9127 73.8984 30.4512 72.7031C30.6275 72.304 30.8286 71.7832 31.0545 71.1396L31.5273 69.772C31.5864 69.6159 31.696 69.5598 31.8567 69.6033L32.2886 69.7205C32.7534 69.8458 33.0545 70.0347 33.1929 70.2868C33.3071 70.4985 33.3111 70.8006 33.2055 71.1926C33.1924 71.2406 32.6109 72.9133 31.4611 76.2116C31.3995 76.3758 31.3566 76.4713 31.3318 76.4991C31.2995 76.5249 31.2272 76.5223 31.1151 76.492L30.6462 76.3647C29.8617 76.1531 29.5338 75.712 29.6637 75.0421C29.0398 75.664 28.3234 75.8656 27.5151 75.6469C26.9225 75.4867 26.4961 75.174 26.2349 74.7082C25.9945 74.2652 25.947 73.7711 26.0945 73.2265C26.3997 72.0974 26.9018 70.6389 27.6 68.8516C27.6909 68.6101 27.8369 68.5162 28.037 68.5702L28.4214 68.6743C28.8938 68.8021 29.2009 68.9834 29.3434 69.2199C29.4626 69.4154 29.4757 69.6857 29.3818 70.0292ZM49.9004 68.3767C50.6334 68.11 51.2755 68.0569 51.8287 68.2176C52.4824 68.4126 52.8851 68.9011 53.0377 69.6841C53.2165 70.5637 52.9199 71.3603 52.1465 72.0742L51.3427 72.7769C51.1134 73.0194 51.0174 73.2401 51.0543 73.4387C51.1088 73.71 51.3852 73.7544 51.8843 73.5731C52.2819 73.4281 52.6017 73.228 52.8442 72.9724C53.0973 72.7213 53.2624 72.5819 53.3402 72.5536C53.5433 72.4793 53.7363 72.5369 53.9197 72.7264C54.0738 72.8825 54.1677 73.0553 54.2016 73.2462C54.2738 73.5902 54.0248 73.9722 53.4534 74.392C53.0134 74.7117 52.5092 74.9744 51.9399 75.1816C51.1684 75.4624 50.5344 75.4902 50.0373 75.2649C49.5614 75.0497 49.2614 74.6385 49.1376 74.0297C48.9653 73.1922 49.3033 72.3985 50.151 71.6483C50.7941 71.088 51.0866 70.8354 51.028 70.8925C51.2857 70.6309 51.3917 70.3889 51.3468 70.1676C51.2679 69.7811 50.9871 69.676 50.5036 69.8518C50.0747 70.0079 49.9045 70.3651 49.9939 70.9249C50.0177 71.0396 49.9358 71.1305 49.7489 71.1992C48.9153 71.5028 48.4212 71.2851 48.2667 70.5465C48.1757 70.1029 48.2661 69.6947 48.5369 69.3229C48.8148 68.9218 49.2694 68.6066 49.9004 68.3767ZM55.3756 67.0395C55.4994 67.2466 55.7586 67.7578 56.1521 68.5762C56.5436 69.4058 56.7796 69.8877 56.8609 70.0231C57.1766 70.5495 57.5692 70.6718 58.039 70.3899C58.529 70.0959 58.531 69.3406 58.043 68.1241C57.8783 67.72 57.6419 67.2138 57.3348 66.605L56.6775 65.3153C56.6063 65.1647 56.6421 65.0465 56.7836 64.9617L57.1681 64.7308C57.5808 64.4832 57.9258 64.3973 58.2032 64.4726C58.4356 64.5373 58.6558 64.7429 58.865 65.0915C58.8902 65.1349 59.6925 66.7136 61.2712 69.8291C61.3469 69.9872 61.3858 70.0842 61.3889 70.1216C61.3843 70.1625 61.3323 70.2131 61.2333 70.2727L60.8165 70.5222C60.1198 70.941 59.5753 70.8708 59.1827 70.3131C59.1979 71.1936 58.8463 71.8494 58.1279 72.2808C57.6015 72.5965 57.0806 72.6865 56.5643 72.5516C56.0779 72.4177 55.6893 72.109 55.3989 71.6251C54.7977 70.6228 54.0945 69.2497 53.2912 67.5068C53.1801 67.2734 53.2135 67.1036 53.3913 66.997L53.7328 66.7919C54.1521 66.5404 54.4966 66.4449 54.7654 66.5065C54.9887 66.556 55.1922 66.7338 55.3756 67.0395ZM44.8273 77.1265C42.8879 77.3933 41.777 76.4986 41.4946 74.4445C41.3385 73.3104 41.4775 72.3702 41.9109 71.624C42.4308 70.7152 43.3436 70.1716 44.6505 69.9918C46.5814 69.7266 47.6791 70.5546 47.9439 72.4778C48.0883 73.5296 47.9833 74.444 47.6301 75.2215C47.1341 76.3026 46.1999 76.9376 44.8273 77.1265ZM44.6662 71.6599C43.7376 71.7877 43.3729 72.5748 43.5714 74.0206C43.7164 75.0724 44.1211 75.5529 44.7869 75.4614C45.2962 75.3917 45.6321 75.031 45.7938 74.3809C45.914 73.9126 45.9352 73.3988 45.8584 72.84C45.7372 71.9605 45.3401 71.5675 44.6662 71.6599ZM38.4236 70.4258C39.9882 70.5222 40.7091 71.5685 40.5858 73.564C40.5085 74.8219 40.1655 75.8065 39.5562 76.5168C38.9738 77.2043 38.2564 77.5216 37.4031 77.4685C36.6337 77.4211 36.1179 77.024 35.8562 76.2768L35.4097 79.2781C35.391 79.4433 35.295 79.5201 35.1212 79.5095L34.6736 79.4822C34.1942 79.4524 33.8608 79.3281 33.6749 79.1089C33.5198 78.925 33.4551 78.63 33.4798 78.2243C33.5006 77.8853 33.8431 75.367 34.5064 70.6708C34.5261 70.4894 34.5534 70.3828 34.5887 70.352C34.6145 70.3288 34.6817 70.3202 34.7893 70.3267L35.2737 70.3565C35.6961 70.3828 36.0128 70.498 36.2245 70.7021C36.421 70.8804 36.5114 71.1062 36.4948 71.3795C36.903 70.6895 37.5456 70.3722 38.4236 70.4258ZM37.4148 72.0221C36.5953 71.9711 36.1442 72.6248 36.0603 73.9828C35.9886 75.1417 36.2836 75.7418 36.9464 75.7828C37.3188 75.8055 37.6279 75.6499 37.8724 75.3159C38.1362 74.9502 38.2897 74.4112 38.3342 73.6993C38.4003 72.6233 38.0937 72.0636 37.4148 72.0221ZM18.3177 6.63434C18.1606 6.74245 17.9575 6.90714 17.7069 7.12892C18.0717 7.70382 18.5617 8.51412 19.179 9.55986C19.4033 9.476 19.6109 9.36891 19.8024 9.23706C20.2197 8.95113 20.3935 8.54495 20.3243 8.01855C20.2732 7.65178 20.1187 7.27945 19.861 6.90309C19.4478 6.30141 18.9335 6.212 18.3177 6.63434ZM25.1892 4.37059C25.2943 4.62319 25.4469 5.08493 25.6469 5.75682C25.8384 6.43175 25.9632 6.83844 26.0203 6.97635C26.2602 7.55024 26.6244 7.73513 27.115 7.53053C27.8419 7.22691 27.9774 6.36608 27.5202 4.94853L26.8078 2.7242C26.7512 2.56759 26.8038 2.45593 26.965 2.38924L27.3782 2.21647C28.1587 1.89063 28.6821 2.04522 28.9473 2.68125C29.0362 2.89495 29.6207 4.61964 30.7013 7.85384C31.2944 9.61997 30.6266 10.9052 28.6972 11.7105C27.9319 12.0297 27.2383 12.1666 26.6164 12.1202C26.0061 12.0782 25.6227 11.8701 25.4656 11.4947C25.3514 11.2194 25.3797 10.9557 25.5535 10.7036C25.7106 10.4763 25.9531 10.2939 26.2825 10.1565C26.3057 10.1469 26.4679 10.2232 26.769 10.3848C27.0736 10.5546 27.4817 10.5324 27.995 10.3182C28.8831 9.94735 29.0261 9.04255 28.4259 7.60327C28.332 8.4338 27.8682 9.02286 27.0337 9.37093C25.7626 9.90188 24.827 9.44721 24.2263 8.00794C24.1309 7.77808 23.7303 6.5924 23.0255 4.45091C22.9417 4.20691 22.9993 4.04373 23.1983 3.96038L23.5655 3.80732C24.0248 3.61535 24.3794 3.57088 24.629 3.67394C24.8492 3.77043 25.0362 4.00282 25.1892 4.37059ZM34.6928 5.87604C35.0696 5.81542 35.4122 5.65074 35.7218 5.38198C36.031 5.11272 36.2058 4.97531 36.2468 4.96823C36.4347 4.93742 36.5493 5.04551 36.5893 5.29103C36.658 5.7169 36.5867 6.10238 36.3736 6.44793C35.9947 7.06375 35.3758 7.44213 34.516 7.58156C33.7708 7.70281 33.1141 7.59114 32.5457 7.24661C31.837 6.81518 31.3939 6.0559 31.2166 4.96621C31.0625 4.01697 31.1272 3.17027 31.4091 2.42664C31.8213 1.34301 32.67 0.696381 33.9557 0.487739C34.717 0.363968 35.3303 0.440735 35.7956 0.718082C36.223 0.968149 36.4791 1.35462 36.564 1.879C36.7039 2.73832 36.2417 3.25464 35.1767 3.42843C34.9641 3.46227 34.8489 3.42236 34.8302 3.30768C34.7443 2.83382 34.67 2.5312 34.6064 2.39884C34.4973 2.18969 34.3154 2.10583 34.0613 2.14726C33.3081 2.26951 33.0495 3.05508 33.2849 4.50446C33.3783 5.07735 33.538 5.46736 33.7648 5.67448C33.9739 5.87555 34.2836 5.94273 34.6928 5.87604ZM40.7743 5.43906C41.1557 5.43502 41.5194 5.32387 41.8654 5.10462C42.212 4.88587 42.406 4.77625 42.4474 4.77524C42.6379 4.77372 42.7349 4.897 42.7369 5.14606C42.7409 5.57749 42.6121 5.94779 42.3499 6.25747C41.8821 6.80914 41.2127 7.0895 40.3418 7.09808C39.587 7.10516 38.9546 6.89552 38.4443 6.46914C37.8088 5.93567 37.486 5.11776 37.4754 4.01494C37.4658 3.05256 37.6572 2.22558 38.0488 1.53297C38.6196 0.524109 39.5557 0.0128437 40.8586 0.000213989C41.63 -0.00685862 42.2246 0.161381 42.6424 0.505919C43.0274 0.817113 43.2224 1.23844 43.2269 1.76888C43.2355 2.63983 42.7005 3.08136 41.6224 3.09095C41.4067 3.09348 41.2981 3.0364 41.2971 2.92021C41.2845 2.43927 41.2562 2.12806 41.2137 1.98813C41.1369 1.76484 40.9697 1.6542 40.7126 1.65672C39.9493 1.66379 39.5754 2.40188 39.589 3.86995C39.5951 4.45041 39.6941 4.86013 39.8871 5.09858C40.0639 5.32945 40.359 5.4431 40.7743 5.43906ZM49.5316 7.22085C49.4988 7.38352 49.372 7.57398 49.1512 7.79222C48.8587 8.0721 48.5536 8.18021 48.2364 8.11707C47.5286 7.97561 46.8557 6.85612 46.2166 4.75758L45.527 7.19609C45.4866 7.35674 45.381 7.42039 45.2098 7.38654L44.7708 7.29865C44.2908 7.20267 43.9781 7.03495 43.8306 6.79448C43.7043 6.5823 43.6816 6.2696 43.7649 5.85433C43.7841 5.75683 43.9261 5.2567 44.1913 4.35343C44.5985 2.94648 44.9476 1.70523 45.2385 0.629181C45.2825 0.452366 45.3239 0.350329 45.3628 0.324564C45.3921 0.304862 45.4594 0.305357 45.5654 0.327081L46.0413 0.421556C46.8875 0.590289 47.2396 1.02878 47.0982 1.73655C47.0658 1.89871 46.9759 2.20233 46.8279 2.64689L49.1356 1.25511C49.2801 1.16519 49.4059 1.13134 49.512 1.15205C49.6746 1.18489 49.8322 1.41069 49.9848 1.8305C50.1318 2.24021 50.1848 2.54686 50.1444 2.75045C50.058 3.18137 49.1896 3.57037 47.5387 3.91743C48.8643 6.13621 49.5281 7.23702 49.5316 7.22085ZM54.1198 3.98514C54.0253 4.20642 53.7631 4.71714 53.3332 5.51634C52.8921 6.3206 52.6406 6.79498 52.5789 6.93997C52.339 7.50477 52.4703 7.89478 52.974 8.10898C53.5009 8.33328 54.1127 7.88971 54.8104 6.78032C55.0402 6.41002 55.311 5.921 55.6232 5.31427L56.2799 4.02506C56.3598 3.87906 56.4765 3.83863 56.629 3.9033L57.0413 4.07858C57.4843 4.26702 57.7561 4.49538 57.8581 4.76414C57.943 4.98996 57.9056 5.28952 57.7465 5.66336C57.7268 5.70933 56.9205 7.28603 55.3276 10.3949C55.2443 10.5485 55.1887 10.6374 55.1604 10.6612C55.1246 10.6819 55.0533 10.6698 54.9462 10.6243L54.4996 10.4343C53.7515 10.1161 53.4878 9.63413 53.708 8.98901C53.0048 9.51895 52.2678 9.62048 51.4968 9.29261C50.9326 9.05214 50.5531 8.68337 50.3586 8.18577C50.1808 7.71392 50.2026 7.21834 50.4233 6.69951C50.8815 5.62296 51.5787 4.24783 52.5163 2.57314C52.6401 2.34631 52.7972 2.27357 52.9881 2.35491L53.3544 2.51048C53.805 2.70195 54.0844 2.92424 54.193 3.17835C54.2834 3.388 54.2592 3.65677 54.1198 3.98514ZM58.3113 13.0911C57.6364 12.5809 57.213 12.006 57.0413 11.3669C56.819 10.5743 57.02 9.76498 57.6455 8.93698C58.2355 8.15647 58.9226 7.60531 59.7071 7.28351C60.8599 6.80308 61.9956 6.98595 63.1141 7.83112C64.3584 8.77127 64.6049 9.7377 63.8547 10.7304C63.2697 11.5043 62.4195 11.7206 61.3065 11.378C60.6569 11.1775 59.988 10.8178 59.3 10.2974C59.0847 10.5819 58.9822 10.8688 58.9933 11.1573C58.9983 11.4942 59.1595 11.7822 59.4778 12.0221C59.7425 12.2227 60.0239 12.2899 60.3229 12.2252C60.6165 12.1666 60.7932 12.1601 60.8529 12.205C60.9918 12.3096 61.1014 12.4606 61.1823 12.6561C61.3005 12.9537 61.2646 13.228 61.0747 13.4796C60.8044 13.8368 60.3795 13.952 59.7991 13.8257C59.3171 13.7206 58.821 13.4761 58.3113 13.0911ZM61.7784 8.89606C61.3025 8.53586 60.6862 8.74601 59.9299 9.52601C60.3517 9.83468 60.7351 10.015 61.0802 10.0681C61.4429 10.1236 61.7147 10.0332 61.895 9.79479C62.1547 9.45076 62.1158 9.15118 61.7784 8.89606Z" fill="#607200"/>
</svg>
